<?xml version="1.0" encoding="utf-8" ?>
<svg baseProfile="tiny" height="100%" version="1.2" width="100%" xmlns="http://www.w3.org/2000/svg" xmlns:ev="http://www.w3.org/2001/xml-events" xmlns:xlink="http://www.w3.org/1999/xlink"><defs /><polygon fill="black" points="40.0,43.9969 39.0,43.9969 38.0031,43.0 38.0,42.9969 37.0031,42.0 37.0,41.9969 36.0031,41.0 36.0,40.9969 35.9969,41.0 35.0,41.9969 34.0,41.9969 33.0,41.9969 32.0,41.9969 31.0,41.9969 30.0,41.9969 29.0,41.9969 28.0,41.9969 27.0,41.9969 26.0,41.9969 25.0,41.9969 24.0,41.9969 23.0,41.9969 22.0,41.9969 21.0,41.9969 20.0031,41.0 20.0031,40.0 20.0031,39.0 20.0031,38.0 20.0031,37.0 20.0031,36.0 20.0031,35.0 20.0031,34.0 20.0031,33.0 20.0031,32.0 20.0031,31.0 20.0031,30.0 20.0031,29.0 20.0031,28.0 20.0031,27.0 20.0031,26.0 20.0031,25.0 20.0031,24.0 21.0,23.0031 22.0,23.0031 23.0,23.0031 24.0,23.0031 25.0,23.0031 26.0,23.0031 27.0,23.0031 28.0,23.0031 29.0,23.0031 30.0,23.0031 31.0,23.0031 32.0,23.0031 33.0,23.0031 34.0,23.0031 35.0,23.0031 36.0,23.0031 37.0,23.0031 38.0,23.0031 39.0,23.0031 40.0,23.0031 40.9969,24.0 40.9969,25.0 40.9969,26.0 40.9969,27.0 40.9969,28.0 40.9969,29.0 40.9969,30.0 40.9969,31.0 40.9969,32.0 40.9969,33.0 40.9969,34.0 40.9969,35.0 40.9969,36.0 40.9969,37.0 40.9969,38.0 40.9969,39.0 40.9969,40.0 40.9969,41.0 40.9969,42.0 40.9969,43.0 40.0,43.9969" /><polygon fill="black" points="35.0031,35.0 36.0,34.0031 36.0031,34.0 36.0031,33.0 36.0,32.9969 35.0031,32.0 35.0031,31.0 35.0,30.9969 34.0031,30.0 34.0,29.9969 33.0,29.9969 32.0,29.9969 31.0,29.9969 30.0,29.9969 29.0,29.9969 28.0,29.9969 27.0,29.9969 26.9969,30.0 26.0,30.9969 25.9969,31.0 25.9969,32.0 25.9969,33.0 25.0,33.9969 24.9969,34.0 25.0,34.0031 25.9969,35.0 26.0,35.0031 27.0,35.0031 27.0031,35.0 28.0,34.0031 29.0,34.0031 30.0,34.0031 31.0,34.0031 32.0,34.0031 33.0,34.0031 33.9969,35.0 34.0,35.0031 35.0,35.0031 35.0031,35.0" /></svg>