<?xml version="1.0" encoding="utf-8" ?>
<svg baseProfile="tiny" height="100%" version="1.2" width="100%" xmlns="http://www.w3.org/2000/svg" xmlns:ev="http://www.w3.org/2001/xml-events" xmlns:xlink="http://www.w3.org/1999/xlink"><defs /><polygon fill="black" points="22.0,43.9969 21.0,43.9969 20.0,43.9969 19.0,43.9969 18.0,43.9969 17.0,43.9969 16.0031,43.0 16.0,42.9969 15.0031,42.0 15.0031,41.0 15.0031,40.0 15.0031,39.0 15.0031,38.0 15.0031,37.0 15.0031,36.0 15.0,35.9969 14.0,35.9969 13.0,35.9969 12.0031,35.0 12.0,34.9969 11.0,34.9969 10.0031,34.0 10.0031,33.0 10.0031,32.0 10.0031,31.0 11.0,30.0031 12.0,30.0031 13.0,30.0031 14.0,30.0031 14.0031,30.0 15.0,29.0031 15.0031,29.0 15.0031,28.0 15.0031,27.0 16.0,26.0031 17.0,26.0031 17.0031,26.0 17.0031,25.0 18.0,24.0031 19.0,24.0031 20.0,24.0031 21.0,24.0031 21.0031,24.0 22.0,23.0031 23.0,23.0031 24.0,23.0031 25.0,23.0031 26.0,23.0031 27.0,23.0031 28.0,23.0031 28.9969,24.0 29.0,24.0031 29.9969,25.0 30.0,25.0031 30.9969,26.0 30.9969,27.0 30.0,27.9969 29.0,27.9969 28.0,27.9969 27.9969,28.0 27.0,28.9969 26.0,28.9969 25.0,28.9969 24.0,28.9969 23.9969,29.0 23.9969,30.0 24.0,30.0031 25.0,30.0031 26.0,30.0031 27.0,30.0031 28.0,30.0031 29.0,30.0031 30.0,30.0031 30.9969,31.0 30.0,31.9969 29.9969,32.0 29.0,32.9969 28.9969,33.0 28.9969,34.0 28.0,34.9969 27.9969,35.0 27.0,35.9969 26.0,35.9969 25.0,35.9969 24.0,35.9969 23.9969,36.0 23.9969,37.0 23.9969,38.0 23.9969,39.0 23.9969,40.0 23.9969,41.0 23.9969,42.0 23.0,42.9969 22.9969,43.0 22.0,43.9969" /></svg>