<?xml version="1.0" encoding="utf-8" ?>
<svg baseProfile="tiny" height="100%" version="1.2" width="100%" xmlns="http://www.w3.org/2000/svg" xmlns:ev="http://www.w3.org/2001/xml-events" xmlns:xlink="http://www.w3.org/1999/xlink"><defs /><polygon fill="black" points="30.0,43.9969 29.0,43.9969 28.0,43.9969 27.0,43.9969 26.0,43.9969 25.0,43.9969 24.0,43.9969 23.0,43.9969 22.0,43.9969 21.0,43.9969 20.0031,43.0 20.0,42.9969 19.0,42.9969 18.0031,42.0 18.0031,41.0 18.0,40.9969 17.0031,40.0 17.0,39.9969 16.0031,39.0 16.0031,38.0 16.0031,37.0 16.0,36.9969 15.0031,36.0 15.0031,35.0 15.0031,34.0 15.0031,33.0 15.0031,32.0 16.0,31.0031 16.0031,31.0 17.0,30.0031 17.0031,30.0 18.0,29.0031 19.0,29.0031 20.0,29.0031 21.0,29.0031 22.0,29.0031 22.0031,29.0 23.0,28.0031 24.0,28.0031 24.0031,28.0 25.0,27.0031 25.0031,27.0 25.0031,26.0 25.0031,25.0 26.0,24.0031 26.0031,24.0 27.0,23.0031 28.0,23.0031 28.9969,24.0 29.0,24.0031 30.0,24.0031 30.0031,24.0 31.0,23.0031 32.0,23.0031 33.0,23.0031 33.9969,24.0 34.0,24.0031 34.9969,25.0 34.9969,26.0 34.9969,27.0 34.9969,28.0 34.0,28.9969 33.0,28.9969 32.9969,29.0 33.0,29.0031 33.9969,30.0 34.0,30.0031 34.9969,31.0 35.0,31.0031 35.9969,32.0 35.9969,33.0 35.9969,34.0 35.9969,35.0 35.9969,36.0 35.0,36.9969 34.9969,37.0 34.9969,38.0 34.9969,39.0 34.0,39.9969 33.9969,40.0 33.0,40.9969 32.9969,41.0 32.0,41.9969 31.9969,42.0 31.0,42.9969 30.9969,43.0 30.0,43.9969" /><polygon fill="black" points="31.0031,29.0 31.0,28.9969 30.0,28.9969 29.0031,28.0 29.0,27.9969 28.0,27.9969 27.9969,28.0 28.0,28.0031 28.9969,29.0 29.0,29.0031 30.0,29.0031 31.0,29.0031 31.0031,29.0" /></svg>