<svg width="17" height="18" viewBox="0 0 17 18" fill="none" xmlns="http://www.w3.org/2000/svg">
<path d="M13.8984 12.6415C13.2144 12.6415 12.6024 12.9092 12.1344 13.3287L5.71744 9.62478C5.76244 9.41949 5.79844 9.2142 5.79844 8.99998C5.79844 8.78577 5.76244 8.58049 5.71744 8.37521L12.0624 4.70692C12.5484 5.15318 13.1874 5.42987 13.8984 5.42987C15.3924 5.42987 16.5984 4.23389 16.5984 2.75229C16.5984 1.27069 15.3924 0.074707 13.8984 0.074707C12.4044 0.074707 11.1984 1.27069 11.1984 2.75229C11.1984 2.9665 11.2344 3.17178 11.2794 3.37706L4.93444 7.04534C4.44844 6.59908 3.80944 6.3224 3.09844 6.3224C1.60444 6.3224 0.398438 7.51838 0.398438 8.99998C0.398438 10.4816 1.60444 11.6776 3.09844 11.6776C3.80944 11.6776 4.44844 11.4008 4.93444 10.9546L11.3424 14.6676C11.2974 14.8549 11.2704 15.0513 11.2704 15.2477C11.2704 16.6847 12.4494 17.8538 13.8984 17.8538C15.3474 17.8538 16.5264 16.6847 16.5264 15.2477C16.5264 13.8107 15.3474 12.6415 13.8984 12.6415ZM13.8984 1.85976C14.3934 1.85976 14.7984 2.2614 14.7984 2.75229C14.7984 3.24318 14.3934 3.64482 13.8984 3.64482C13.4034 3.64482 12.9984 3.24318 12.9984 2.75229C12.9984 2.2614 13.4034 1.85976 13.8984 1.85976ZM3.09844 9.89253C2.60344 9.89253 2.19844 9.49086 2.19844 8.99998C2.19844 8.50909 2.60344 8.10745 3.09844 8.10745C3.59344 8.10745 3.99844 8.50909 3.99844 8.99998C3.99844 9.49086 3.59344 9.89253 3.09844 9.89253ZM13.8984 16.1581C13.4034 16.1581 12.9984 15.7564 12.9984 15.2655C12.9984 14.7747 13.4034 14.373 13.8984 14.373C14.3934 14.373 14.7984 14.7747 14.7984 15.2655C14.7984 15.7564 14.3934 16.1581 13.8984 16.1581Z" fill="#202124"/>
</svg>
