<svg width="14" height="14" viewBox="0 0 14 14" fill="none" xmlns="http://www.w3.org/2000/svg">
<path d="M7.00547 3.40586C5.01797 3.40586 3.41484 5.00898 3.41484 6.99648C3.41484 8.98398 5.01797 10.5871 7.00547 10.5871C8.99297 10.5871 10.5961 8.98398 10.5961 6.99648C10.5961 5.00898 8.99297 3.40586 7.00547 3.40586ZM7.00547 9.33086C5.72109 9.33086 4.67109 8.28398 4.67109 6.99648C4.67109 5.70898 5.71797 4.66211 7.00547 4.66211C8.29297 4.66211 9.33984 5.70898 9.33984 6.99648C9.33984 8.28398 8.28984 9.33086 7.00547 9.33086ZM11.5805 3.25898C11.5805 3.72461 11.2055 4.09648 10.743 4.09648C10.2773 4.09648 9.90547 3.72148 9.90547 3.25898C9.90547 2.79648 10.2805 2.42148 10.743 2.42148C11.2055 2.42148 11.5805 2.79648 11.5805 3.25898ZM13.9586 4.10898C13.9055 2.98711 13.6492 1.99336 12.8273 1.17461C12.0086 0.355859 11.0148 0.0996094 9.89297 0.0433594C8.73672 -0.0222656 5.27109 -0.0222656 4.11484 0.0433594C2.99609 0.0964844 2.00234 0.352734 1.18047 1.17148C0.358594 1.99023 0.105469 2.98398 0.0492187 4.10586C-0.0164062 5.26211 -0.0164062 8.72773 0.0492187 9.88398C0.102344 11.0059 0.358594 11.9996 1.18047 12.8184C2.00234 13.6371 2.99297 13.8934 4.11484 13.9496C5.27109 14.0152 8.73672 14.0152 9.89297 13.9496C11.0148 13.8965 12.0086 13.6402 12.8273 12.8184C13.6461 11.9996 13.9023 11.0059 13.9586 9.88398C14.0242 8.72773 14.0242 5.26523 13.9586 4.10898ZM12.4648 11.1246C12.2211 11.7371 11.7492 12.209 11.1336 12.4559C10.2117 12.8215 8.02422 12.7371 7.00547 12.7371C5.98672 12.7371 3.79609 12.8184 2.87734 12.4559C2.26484 12.2121 1.79297 11.7402 1.54609 11.1246C1.18047 10.2027 1.26484 8.01523 1.26484 6.99648C1.26484 5.97773 1.18359 3.78711 1.54609 2.86836C1.78984 2.25586 2.26172 1.78398 2.87734 1.53711C3.79922 1.17148 5.98672 1.25586 7.00547 1.25586C8.02422 1.25586 10.2148 1.17461 11.1336 1.53711C11.7461 1.78086 12.218 2.25273 12.4648 2.86836C12.8305 3.79023 12.7461 5.97773 12.7461 6.99648C12.7461 8.01523 12.8305 10.2059 12.4648 11.1246Z" fill="#9CA3AF"/>
</svg>
