<svg width="11" height="13" viewBox="0 0 11 13" fill="none" xmlns="http://www.w3.org/2000/svg">
<path d="M2.25 0.5C1.00781 0.5 0 1.50781 0 2.75V10.25C0 11.4922 1.00781 12.5 2.25 12.5H9H9.75C10.1648 12.5 10.5 12.1648 10.5 11.75C10.5 11.3352 10.1648 11 9.75 11V9.5C10.1648 9.5 10.5 9.16484 10.5 8.75V1.25C10.5 0.835156 10.1648 0.5 9.75 0.5H9H2.25ZM2.25 9.5H8.25V11H2.25C1.83516 11 1.5 10.6648 1.5 10.25C1.5 9.83516 1.83516 9.5 2.25 9.5ZM3 3.875C3 3.66875 3.16875 3.5 3.375 3.5H7.875C8.08125 3.5 8.25 3.66875 8.25 3.875C8.25 4.08125 8.08125 4.25 7.875 4.25H3.375C3.16875 4.25 3 4.08125 3 3.875ZM3.375 5H7.875C8.08125 5 8.25 5.16875 8.25 5.375C8.25 5.58125 8.08125 5.75 7.875 5.75H3.375C3.16875 5.75 3 5.58125 3 5.375C3 5.16875 3.16875 5 3.375 5Z" fill="#4B5563"/>
</svg>
