<svg width="18" height="15" viewBox="0 0 18 15" fill="none" xmlns="http://www.w3.org/2000/svg">
<path d="M8.75 0.75C9.23398 0.75 9.625 1.14102 9.625 1.625V3.375H12.9062C13.9945 3.375 14.875 4.25547 14.875 5.34375V12.7812C14.875 13.8695 13.9945 14.75 12.9062 14.75H4.59375C3.50547 14.75 2.625 13.8695 2.625 12.7812V5.34375C2.625 4.25547 3.50547 3.375 4.59375 3.375H7.875V1.625C7.875 1.14102 8.26602 0.75 8.75 0.75ZM5.6875 11.25C5.44688 11.25 5.25 11.4469 5.25 11.6875C5.25 11.9281 5.44688 12.125 5.6875 12.125H6.5625C6.80312 12.125 7 11.9281 7 11.6875C7 11.4469 6.80312 11.25 6.5625 11.25H5.6875ZM8.3125 11.25C8.07187 11.25 7.875 11.4469 7.875 11.6875C7.875 11.9281 8.07187 12.125 8.3125 12.125H9.1875C9.42813 12.125 9.625 11.9281 9.625 11.6875C9.625 11.4469 9.42813 11.25 9.1875 11.25H8.3125ZM10.9375 11.25C10.6969 11.25 10.5 11.4469 10.5 11.6875C10.5 11.9281 10.6969 12.125 10.9375 12.125H11.8125C12.0531 12.125 12.25 11.9281 12.25 11.6875C12.25 11.4469 12.0531 11.25 11.8125 11.25H10.9375ZM7.21875 7.75C7.21875 7.45992 7.10352 7.18172 6.8984 6.9766C6.69328 6.77148 6.41508 6.65625 6.125 6.65625C5.83492 6.65625 5.55672 6.77148 5.3516 6.9766C5.14648 7.18172 5.03125 7.45992 5.03125 7.75C5.03125 8.04008 5.14648 8.31828 5.3516 8.5234C5.55672 8.72852 5.83492 8.84375 6.125 8.84375C6.41508 8.84375 6.69328 8.72852 6.8984 8.5234C7.10352 8.31828 7.21875 8.04008 7.21875 7.75ZM11.375 8.84375C11.6651 8.84375 11.9433 8.72852 12.1484 8.5234C12.3535 8.31828 12.4688 8.04008 12.4688 7.75C12.4688 7.45992 12.3535 7.18172 12.1484 6.9766C11.9433 6.77148 11.6651 6.65625 11.375 6.65625C11.0849 6.65625 10.8067 6.77148 10.6016 6.9766C10.3965 7.18172 10.2812 7.45992 10.2812 7.75C10.2812 8.04008 10.3965 8.31828 10.6016 8.5234C10.8067 8.72852 11.0849 8.84375 11.375 8.84375ZM1.3125 6.875H1.75V12.125H1.3125C0.587891 12.125 0 11.5371 0 10.8125V8.1875C0 7.46289 0.587891 6.875 1.3125 6.875ZM16.1875 6.875C16.9121 6.875 17.5 7.46289 17.5 8.1875V10.8125C17.5 11.5371 16.9121 12.125 16.1875 12.125H15.75V6.875H16.1875Z" fill="#2563EB"/>
</svg>
