<svg width="13" height="13" viewBox="0 0 13 13" fill="none" xmlns="http://www.w3.org/2000/svg">
<path d="M4.56243 9.5215L3.83821 8.79728C3.63899 8.59806 3.56868 8.30978 3.65774 8.04259C3.72805 7.834 3.8218 7.56212 3.9343 7.2504H1.45461C1.25305 7.2504 1.06555 7.14259 0.964769 6.96681C0.863988 6.79103 0.866331 6.5754 0.969456 6.40197L2.19993 4.32775C2.50461 3.81447 3.05539 3.5004 3.65071 3.5004H5.57961C5.63586 3.40665 5.69211 3.31994 5.74836 3.23556C7.66789 0.40431 10.5273 0.31056 12.2335 0.624623C12.5054 0.673842 12.7163 0.887123 12.7679 1.159C13.082 2.86759 12.9859 5.72462 10.157 7.64415C10.0749 7.7004 9.98586 7.75665 9.89211 7.8129V9.74181C9.89211 10.3371 9.57805 10.8902 9.06477 11.1926L6.99055 12.4231C6.81711 12.5262 6.60149 12.5285 6.42571 12.4277C6.24993 12.327 6.14211 12.1418 6.14211 11.9379V9.4254C5.81164 9.54025 5.52336 9.634 5.30539 9.70431C5.04289 9.78869 4.75696 9.71603 4.56008 9.5215H4.56243ZM9.89211 4.4379C10.1408 4.4379 10.3792 4.33913 10.555 4.16332C10.7308 3.9875 10.8296 3.74904 10.8296 3.5004C10.8296 3.25176 10.7308 3.01331 10.555 2.83749C10.3792 2.66168 10.1408 2.5629 9.89211 2.5629C9.64347 2.5629 9.40502 2.66168 9.2292 2.83749C9.05338 3.01331 8.95461 3.25176 8.95461 3.5004C8.95461 3.74904 9.05338 3.9875 9.2292 4.16332C9.40502 4.33913 9.64347 4.4379 9.89211 4.4379Z" fill="#4B5563"/>
</svg>
