<svg width="16" height="11" viewBox="0 0 16 11" fill="none" xmlns="http://www.w3.org/2000/svg">
<path d="M8.29724 0.25C8.10739 0.25 7.91989 0.282812 7.74177 0.346094L1.16755 2.72031C0.944892 2.80234 0.797236 3.01328 0.797236 3.25C0.797236 3.48672 0.944892 3.69766 1.16755 3.77969L2.52458 4.26953C2.1402 4.87422 1.92224 5.58906 1.92224 6.34141V7C1.92224 7.66563 1.66911 8.35234 1.39958 8.89375C1.24724 9.19844 1.0738 9.49844 0.872236 9.775C0.797236 9.87578 0.776142 10.007 0.81833 10.1266C0.860517 10.2461 0.958955 10.3352 1.08083 10.3656L2.58083 10.7406C2.67927 10.7664 2.78474 10.7477 2.87145 10.6938C2.95817 10.6398 3.01911 10.5508 3.03786 10.45C3.23942 9.44688 3.13864 8.54688 2.98864 7.90234C2.91364 7.56953 2.81286 7.22969 2.67224 6.91797V6.34141C2.67224 5.63359 2.9113 4.96562 3.32614 4.43125C3.62849 4.06797 4.01989 3.775 4.47927 3.59453L8.15895 2.14844C8.35114 2.07344 8.56911 2.16719 8.64411 2.35938C8.71911 2.55156 8.62536 2.76953 8.43317 2.84453L4.75349 4.29062C4.46286 4.40547 4.20739 4.58125 3.9988 4.79688L7.73942 6.14688C7.91755 6.21016 8.10505 6.24297 8.29489 6.24297C8.48474 6.24297 8.67224 6.21016 8.85036 6.14688L15.4269 3.77969C15.6496 3.7 15.7972 3.48672 15.7972 3.25C15.7972 3.01328 15.6496 2.80234 15.4269 2.72031L8.85271 0.346094C8.67458 0.282812 8.48708 0.25 8.29724 0.25ZM3.79724 9.0625C3.79724 9.88984 5.81286 10.75 8.29724 10.75C10.7816 10.75 12.7972 9.88984 12.7972 9.0625L12.4386 5.65469L9.10583 6.85938C8.84567 6.95312 8.57145 7 8.29724 7C8.02302 7 7.74645 6.95312 7.48864 6.85938L4.15583 5.65469L3.79724 9.0625Z" fill="#4B5563"/>
</svg>
