<svg width="17" height="14" viewBox="0 0 17 14" fill="none" xmlns="http://www.w3.org/2000/svg">
<path d="M14.8553 3.74149C14.8655 3.88362 14.8655 4.02577 14.8655 4.1679C14.8655 8.5029 11.566 13.4978 5.53553 13.4978C3.67766 13.4978 1.95178 12.9597 0.5 12.0258C0.763969 12.0562 1.01775 12.0664 1.29188 12.0664C2.82484 12.0664 4.23603 11.5486 5.36294 10.6654C3.92131 10.6349 2.71319 9.69074 2.29694 8.39124C2.5 8.42168 2.70303 8.44199 2.91625 8.44199C3.21066 8.44199 3.50509 8.40137 3.77919 8.33034C2.27666 8.02574 1.14972 6.70596 1.14972 5.11205V5.07146C1.58625 5.31512 2.09391 5.4674 2.63194 5.48768C1.74869 4.89884 1.17003 3.89377 1.17003 2.75671C1.17003 2.14759 1.33244 1.58921 1.61672 1.1019C3.23094 3.09174 5.65734 4.39121 8.37813 4.53337C8.32738 4.28971 8.29691 4.03593 8.29691 3.78212C8.29691 1.97499 9.75884 0.50293 11.5761 0.50293C12.5203 0.50293 13.373 0.898867 13.972 1.53846C14.7131 1.39634 15.4238 1.12221 16.0533 0.746586C15.8096 1.50802 15.2918 2.14762 14.6116 2.55368C15.2715 2.48265 15.9111 2.29987 16.4999 2.04609C16.0533 2.6958 15.4949 3.27446 14.8553 3.74149Z" fill="#9CA3AF"/>
</svg>
