<svg width="13" height="13" viewBox="0 0 13 13" fill="none" xmlns="http://www.w3.org/2000/svg">
<path d="M6.75 1.625C4.05703 1.625 1.875 3.80703 1.875 6.5V7.4375C1.875 7.74922 1.62422 8 1.3125 8C1.00078 8 0.75 7.74922 0.75 7.4375V6.5C0.75 3.18594 3.43594 0.5 6.75 0.5C10.0641 0.5 12.75 3.18594 12.75 6.5V9.87734C12.75 11.0164 11.8266 11.9398 10.6852 11.9398L8.1 11.9375C7.90547 12.2727 7.54219 12.5 7.125 12.5H6.375C5.75391 12.5 5.25 11.9961 5.25 11.375C5.25 10.7539 5.75391 10.25 6.375 10.25H7.125C7.54219 10.25 7.90547 10.4773 8.1 10.8125L10.6875 10.8148C11.2055 10.8148 11.625 10.3953 11.625 9.87734V6.5C11.625 3.80703 9.44297 1.625 6.75 1.625ZM4.125 5.375H4.5C4.91484 5.375 5.25 5.71016 5.25 6.125V8.75C5.25 9.16484 4.91484 9.5 4.5 9.5H4.125C3.29766 9.5 2.625 8.82734 2.625 8V6.875C2.625 6.04766 3.29766 5.375 4.125 5.375ZM9.375 5.375C10.2023 5.375 10.875 6.04766 10.875 6.875V8C10.875 8.82734 10.2023 9.5 9.375 9.5H9C8.58516 9.5 8.25 9.16484 8.25 8.75V6.125C8.25 5.71016 8.58516 5.375 9 5.375H9.375Z" fill="#4B5563"/>
</svg>
