<svg width="15" height="12" viewBox="0 0 15 12" fill="none" xmlns="http://www.w3.org/2000/svg">
<path d="M14.1091 1.80091C13.6136 2.01296 13.118 2.1826 12.5399 2.22501C13.118 1.88573 13.531 1.33439 13.7374 0.698229C13.2006 1.03751 12.6225 1.24957 12.0031 1.3768C11.5075 0.825461 10.8055 0.486176 10.0622 0.486176C8.57561 0.486176 7.33677 1.71609 7.33677 3.28528C7.33677 3.49734 7.37807 3.70939 7.41936 3.92144C5.14816 3.79421 3.16602 2.69153 1.80329 0.995104C1.55552 1.41921 1.43164 1.88573 1.43164 2.39466C1.43164 3.3701 1.92718 4.21832 2.62919 4.72725C2.17494 4.72725 1.762 4.60001 1.39035 4.38796V4.43037C1.39035 5.78751 2.34012 6.89019 3.57896 7.14466C3.33119 7.18707 3.12472 7.22948 2.87695 7.22948C2.71177 7.22948 2.5466 7.22948 2.38142 7.18707C2.71177 8.28975 3.74414 9.09555 4.90039 9.13796C3.99191 9.90135 2.79436 10.3255 1.51423 10.3255C1.30776 10.3255 1.05999 10.3255 0.853516 10.283C2.09235 11.0464 3.53767 11.513 5.06557 11.513C10.0622 11.513 12.7877 7.27189 12.7877 3.58216C12.7877 3.45493 12.7877 3.32769 12.7877 3.24287C13.2832 2.81876 13.7374 2.35225 14.1091 1.80091Z" fill="black"/>
</svg>
