<svg width="14" height="12" viewBox="0 0 14 12" fill="none" xmlns="http://www.w3.org/2000/svg">
<path d="M13.7863 5.91477C13.7863 4.98174 13.0229 4.30317 12.1747 4.30317C11.7506 4.30317 11.4113 4.47281 11.1568 4.64245C10.139 4.0487 8.86663 3.62459 7.50949 3.53977L8.18806 1.33442L10.139 1.75852C10.2238 2.43709 10.8175 3.03084 11.4961 3.03084C12.2595 3.03084 12.8532 2.43709 12.8532 1.6737C12.8532 0.910309 12.2595 0.316559 11.4961 0.316559C10.9872 0.316559 10.4782 0.655845 10.3086 1.07995L8.01841 0.486202C7.84877 0.486202 7.67913 0.571023 7.59431 0.740666L6.74609 3.53977C5.30413 3.53977 3.94699 3.96388 2.84431 4.55763C2.58984 4.38799 2.25056 4.21835 1.82645 4.21835C0.978237 4.21835 0.214844 4.98174 0.214844 5.91477C0.214844 6.50852 0.469308 6.93263 0.893415 7.27192C0.893415 7.44156 0.893415 7.52638 0.893415 7.69602C0.893415 8.7987 1.57199 9.90138 2.75949 10.6648C3.86216 11.4282 5.38895 11.8523 7.00056 11.8523C8.61217 11.8523 10.139 11.4282 11.2416 10.6648C12.4291 9.90138 13.1077 8.88352 13.1077 7.69602C13.1077 7.6112 13.1077 7.44156 13.1077 7.35674C13.447 6.93263 13.7863 6.4237 13.7863 5.91477ZM4.03181 6.84781C4.03181 6.33888 4.45591 5.91477 4.96484 5.91477C5.47377 5.91477 5.89788 6.33888 5.89788 6.84781C5.89788 7.35674 5.47377 7.78085 4.96484 7.78085C4.45591 7.78085 4.03181 7.35674 4.03181 6.84781ZM9.20592 9.56209C8.69699 10.071 8.01841 10.2407 7.00056 10.2407C5.9827 10.2407 5.21931 9.9862 4.7952 9.56209C4.62556 9.39245 4.62556 9.22281 4.7952 9.05317C4.96484 8.88352 5.13449 8.88352 5.30413 9.05317C5.64341 9.39245 6.15234 9.56209 7.00056 9.56209C7.84877 9.56209 8.3577 9.39245 8.69699 9.05317C8.86663 8.88352 9.03627 8.88352 9.20592 9.05317C9.37556 9.22281 9.37556 9.47727 9.20592 9.56209ZM9.03627 7.78085C8.52734 7.78085 8.10324 7.35674 8.10324 6.84781C8.10324 6.33888 8.52734 5.91477 9.03627 5.91477C9.5452 5.91477 9.96931 6.33888 9.96931 6.84781C9.96931 7.35674 9.5452 7.78085 9.03627 7.78085Z" fill="black"/>
</svg>
