<svg width="15" height="12" viewBox="0 0 15 12" fill="none" xmlns="http://www.w3.org/2000/svg">
<path d="M14.0819 0.642676C14.0713 0.592592 14.0479 0.546298 14.0142 0.508522C13.9805 0.470746 13.9376 0.44284 13.8899 0.427654C13.7164 0.392508 13.5369 0.405687 13.37 0.465823C13.37 0.465823 1.79222 4.73955 1.13109 5.21285C0.988214 5.31464 0.940725 5.37359 0.917187 5.44357C0.802801 5.78031 1.15876 5.92875 1.15876 5.92875L4.14271 6.92752C4.19312 6.93647 4.24485 6.93327 4.29385 6.91819C4.97273 6.47797 11.1236 2.48881 11.4791 2.3548C11.5349 2.33741 11.5762 2.3548 11.5671 2.39721C11.4217 2.90868 6.10999 7.75665 6.08067 7.78634C6.06642 7.79835 6.05522 7.81373 6.04802 7.83116C6.04083 7.84859 6.03786 7.86756 6.03937 7.88643L5.76187 10.8768C5.76187 10.8768 5.64542 11.8098 6.55225 10.8768C7.19521 10.2156 7.81215 9.66852 8.12145 9.40261C9.14762 10.13 10.2518 10.9345 10.728 11.3535C10.8079 11.4332 10.9026 11.4955 11.0064 11.5368C11.1103 11.578 11.2212 11.5973 11.3325 11.5935C11.7868 11.5757 11.9106 11.0655 11.9106 11.0655C11.9106 11.0655 14.02 2.34801 14.091 1.1796C14.0976 1.06509 14.1071 0.991716 14.1079 0.913256C14.1117 0.822255 14.1029 0.731164 14.0819 0.642676Z" fill="black"/>
</svg>
