<svg width="12" height="14" viewBox="0 0 12 14" fill="none" xmlns="http://www.w3.org/2000/svg">
<path d="M10.5464 0.213867H1.45358C1.27031 0.214312 1.08893 0.250878 0.919807 0.321474C0.750682 0.39207 0.597132 0.495311 0.467937 0.625294C0.338741 0.755277 0.236435 0.909452 0.166869 1.079C0.0973024 1.24855 0.0618399 1.43015 0.0625093 1.61342V10.786C0.0618399 10.9693 0.0973024 11.1509 0.166869 11.3204C0.236435 11.49 0.338741 11.6442 0.467937 11.7741C0.597132 11.9041 0.750682 12.0074 0.919807 12.078C1.08893 12.1486 1.27031 12.1851 1.45358 12.1856H9.14858L8.78894 10.9302L9.65751 11.736L10.4786 12.496L11.9375 13.7853V1.61342C11.9382 1.43015 11.9027 1.24855 11.8332 1.079C11.7636 0.909452 11.6613 0.755277 11.5321 0.625294C11.4029 0.495311 11.2493 0.39207 11.0802 0.321474C10.9111 0.250878 10.7297 0.214312 10.5464 0.213867V0.213867ZM7.92715 9.07771C7.92715 9.07771 7.68287 8.78592 7.4793 8.52637C7.97153 8.41135 8.4072 8.12591 8.70921 7.72056C8.46504 7.88306 8.20325 8.01737 7.92885 8.12092C7.61317 8.25567 7.28302 8.35357 6.94492 8.41271C6.36376 8.51971 5.76774 8.51741 5.18742 8.40592C4.84672 8.33926 4.51283 8.24159 4.18992 8.11413C3.91724 8.00841 3.65675 7.87362 3.41296 7.71208C3.70335 8.10925 4.12339 8.39248 4.60046 8.5128C4.39688 8.77065 4.14581 9.07601 4.14581 9.07601C3.74272 9.08689 3.34314 8.99852 2.98223 8.81866C2.62133 8.6388 2.31018 8.37297 2.07617 8.04458C2.09767 6.66905 2.4312 5.31636 3.05162 4.08851C3.59857 3.65898 4.26547 3.41 4.9601 3.37601L5.02796 3.45744C4.37499 3.61903 3.76566 3.92254 3.24331 4.34637C3.24331 4.34637 3.3926 4.26494 3.64367 4.14958C4.13197 3.92676 4.6524 3.78248 5.18572 3.72208C5.22371 3.71422 5.26231 3.70968 5.30108 3.70851C5.7558 3.64926 6.21599 3.64471 6.6718 3.69494C7.3886 3.77681 8.08246 3.99811 8.7143 4.34637C8.21844 3.94273 7.64252 3.64899 7.02465 3.48458L7.11965 3.37601C7.81428 3.41 8.48118 3.65898 9.02814 4.08851C9.64855 5.31636 9.98209 6.66905 10.0036 8.04458C9.76784 8.37293 9.45543 8.6387 9.09354 8.81875C8.73165 8.99881 8.33124 9.08771 7.92715 9.07771Z" fill="black"/>
</svg>
