<svg width="16" height="13" viewBox="0 0 16 13" fill="none" xmlns="http://www.w3.org/2000/svg">
<path d="M7.87432 1.9375C6.0915 1.9375 4.62588 2.74688 3.50205 3.78867C2.44932 4.76758 1.72197 5.92969 1.3501 6.75C1.72197 7.57031 2.44932 8.73242 3.49932 9.71133C4.62588 10.7531 6.0915 11.5625 7.87432 11.5625C9.65713 11.5625 11.1228 10.7531 12.2466 9.71133C13.2993 8.73242 14.0267 7.57031 14.3985 6.75C14.0267 5.92969 13.2993 4.76758 12.2493 3.78867C11.1228 2.74688 9.65713 1.9375 7.87432 1.9375ZM2.60791 2.82891C3.8958 1.63125 5.66494 0.625 7.87432 0.625C10.0837 0.625 11.8528 1.63125 13.1407 2.82891C14.4204 4.01836 15.2763 5.4375 15.6837 6.41367C15.7739 6.62969 15.7739 6.87031 15.6837 7.08633C15.2763 8.0625 14.4204 9.48438 13.1407 10.6711C11.8528 11.8687 10.0837 12.875 7.87432 12.875C5.66494 12.875 3.8958 11.8687 2.60791 10.6711C1.32822 9.48438 0.472363 8.0625 0.0676758 7.08633C-0.0225586 6.87031 -0.0225586 6.62969 0.0676758 6.41367C0.472363 5.4375 1.32822 4.01562 2.60791 2.82891ZM7.87432 8.9375C9.08291 8.9375 10.0618 7.95859 10.0618 6.75C10.0618 5.54141 9.08291 4.5625 7.87432 4.5625C7.85518 4.5625 7.83877 4.5625 7.81963 4.5625C7.85518 4.70195 7.87432 4.84961 7.87432 5C7.87432 5.96523 7.08955 6.75 6.12432 6.75C5.97393 6.75 5.82627 6.73086 5.68682 6.69531C5.68682 6.71445 5.68682 6.73086 5.68682 6.75C5.68682 7.95859 6.66572 8.9375 7.87432 8.9375ZM7.87432 3.25C8.80257 3.25 9.69281 3.61875 10.3492 4.27513C11.0056 4.9315 11.3743 5.82174 11.3743 6.75C11.3743 7.67826 11.0056 8.5685 10.3492 9.22487C9.69281 9.88125 8.80257 10.25 7.87432 10.25C6.94606 10.25 6.05582 9.88125 5.39944 9.22487C4.74307 8.5685 4.37432 7.67826 4.37432 6.75C4.37432 5.82174 4.74307 4.9315 5.39944 4.27513C6.05582 3.61875 6.94606 3.25 7.87432 3.25Z" fill="#6B7280"/>
</svg>
