<svg width="15" height="13" viewBox="0 0 15 13" fill="none" xmlns="http://www.w3.org/2000/svg">
<path d="M6.28359 12.5523L6.21523 12.4894L1.42461 8.04062C0.585156 7.26132 0.109375 6.16757 0.109375 5.02187V4.93163C0.109375 3.00663 1.47656 1.35507 3.36875 0.994134C4.44609 0.786322 5.54805 1.03515 6.42578 1.65312C6.67188 1.82812 6.90156 2.03046 7.10938 2.26288C7.22422 2.13163 7.34727 2.01132 7.47852 1.89921C7.57969 1.81171 7.68359 1.72968 7.79297 1.65312C8.6707 1.03515 9.77266 0.786322 10.85 0.9914C12.7422 1.35234 14.1094 3.00663 14.1094 4.93163V5.02187C14.1094 6.16757 13.6336 7.26132 12.7941 8.04062L8.00352 12.4894L7.93516 12.5523C7.71094 12.7601 7.41563 12.8777 7.10938 12.8777C6.80312 12.8777 6.50781 12.7629 6.28359 12.5523ZM6.64727 3.71484C6.63633 3.70663 6.62813 3.6957 6.61992 3.68476L6.1332 3.13788L6.13047 3.13515C5.49883 2.42695 4.54453 2.10429 3.61484 2.28202C2.34063 2.52538 1.42188 3.63554 1.42188 4.93163V5.02187C1.42188 5.80117 1.74727 6.54765 2.31875 7.07812L7.10938 11.5269L11.9 7.07812C12.4715 6.54765 12.7969 5.80117 12.7969 5.02187V4.93163C12.7969 3.63827 11.8781 2.52538 10.6066 2.28202C9.67695 2.10429 8.71992 2.42968 8.09102 3.13515C8.09102 3.13515 8.09102 3.13515 8.08828 3.13788C8.08555 3.14062 8.08828 3.13788 8.08555 3.14062L7.59883 3.68749C7.59062 3.69843 7.57969 3.70663 7.57148 3.71757C7.44844 3.84062 7.28164 3.90898 7.10938 3.90898C6.93711 3.90898 6.77031 3.84062 6.64727 3.71757V3.71484Z" fill="#6B7280"/>
</svg>
