<svg width="15" height="13" viewBox="0 0 15 13" fill="none" xmlns="http://www.w3.org/2000/svg">
<path d="M3.95745 10.4496C4.31019 10.1926 4.76683 10.127 5.17698 10.2746C5.90159 10.5371 6.7137 10.6875 7.57776 10.6875C10.9875 10.6875 13.2653 8.48633 13.2653 6.3125C13.2653 4.13867 10.9875 1.9375 7.57776 1.9375C4.168 1.9375 1.89026 4.13867 1.89026 6.3125C1.89026 7.1875 2.22933 8.02969 2.86644 8.75156C3.10159 9.0168 3.21644 9.3668 3.18909 9.72227C3.15081 10.2172 3.03323 10.6711 2.88011 11.073C3.34495 10.857 3.7305 10.6164 3.95745 10.4523V10.4496ZM1.15745 11.5598C1.20667 11.4859 1.25315 11.4121 1.2969 11.3383C1.57034 10.8844 1.83011 10.2883 1.88206 9.61836C1.06175 8.68594 0.577764 7.5457 0.577764 6.3125C0.577764 3.1707 3.71136 0.625 7.57776 0.625C11.4442 0.625 14.5778 3.1707 14.5778 6.3125C14.5778 9.4543 11.4442 12 7.57776 12C6.56331 12 5.60081 11.825 4.73128 11.5105C4.40589 11.7484 3.87542 12.0738 3.24651 12.3473C2.83362 12.5277 2.36331 12.6918 1.87659 12.7875C1.85472 12.793 1.83284 12.7957 1.81097 12.8012C1.69065 12.823 1.57308 12.8422 1.45003 12.8531C1.44456 12.8531 1.43636 12.8559 1.43089 12.8559C1.29144 12.8695 1.15198 12.8777 1.01253 12.8777C0.834795 12.8777 0.676202 12.7711 0.607842 12.607C0.539483 12.443 0.577764 12.257 0.700811 12.1312C0.81292 12.0164 0.914092 11.8934 1.0098 11.7621C1.05628 11.6992 1.10003 11.6363 1.14105 11.5734C1.14378 11.568 1.14651 11.5652 1.14925 11.5598H1.15745Z" fill="#6B7280"/>
</svg>
