<svg width="20" height="16" viewBox="0 0 20 16" fill="none" xmlns="http://www.w3.org/2000/svg">
<path d="M18.1164 8.36559C19.882 6.59997 19.882 3.74059 18.1164 1.97497C16.5539 0.412466 14.0914 0.209341 12.2945 1.49372L12.2445 1.52809C11.7945 1.84997 11.6914 2.47497 12.0133 2.92184C12.3352 3.36872 12.9602 3.47497 13.407 3.15309L13.457 3.11872C14.4602 2.40309 15.832 2.51559 16.7008 3.38747C17.6852 4.37184 17.6852 5.96559 16.7008 6.94997L13.1945 10.4625C12.2102 11.4468 10.6164 11.4468 9.63203 10.4625C8.76016 9.59059 8.64766 8.21872 9.36328 7.21872L9.39766 7.16872C9.71953 6.71872 9.61328 6.09372 9.16641 5.77497C8.71953 5.45622 8.09141 5.55934 7.77266 6.00622L7.73828 6.05622C6.45078 7.84997 6.65391 10.3125 8.21641 11.875C9.98203 13.6406 12.8414 13.6406 14.607 11.875L18.1164 8.36559ZM1.87891 7.63434C0.113281 9.39997 0.113281 12.2593 1.87891 14.025C3.44141 15.5875 5.90391 15.7906 7.70078 14.5062L7.75078 14.4718C8.20078 14.15 8.30391 13.525 7.98203 13.0781C7.66016 12.6312 7.03516 12.525 6.58828 12.8468L6.53828 12.8812C5.53516 13.5968 4.16328 13.4843 3.29453 12.6125C2.31016 11.625 2.31016 10.0312 3.29453 9.04684L6.80078 5.53747C7.78516 4.55309 9.37891 4.55309 10.3633 5.53747C11.2352 6.40934 11.3477 7.78122 10.632 8.78434L10.5977 8.83434C10.2758 9.28434 10.382 9.90934 10.8289 10.2281C11.2758 10.5468 11.9039 10.4437 12.2227 9.99684L12.257 9.94684C13.5445 8.14997 13.3414 5.68747 11.7789 4.12497C10.0133 2.35934 7.15391 2.35934 5.38828 4.12497L1.87891 7.63434Z" fill="#4B5563"/>
</svg>
